ply
format ascii 1.0
element vertex 388
property float32 x
property float32 y
property float32 z
property uchar red
property uchar green
property uchar blue
property uchar alpha
element face 524
property list uint8 int32 vertex_indices
end_header
0.0154465539013117 -0.25 0.624267967529475 255 128 128 255 
0.144337567297406 -0.25 0.8 255 128 128 255 
-0.0322227644881173 -0.25 0.710000782180553 255 128 128 255 
-0.144337567297406 -0.25 0.61573486328125 255 128 128 255 
-0.0348820333027305 -0.25 0.470604192185564 255 128 128 255 
-0.144337567297406 -0.25 0.131372070312501 255 128 128 255 
0.00930301435888661 -0.25 0.128282278487794 255 128 128 255 
-0.0706299462227 -0.25 0.207425947490108 255 128 128 255 
0.144337567297406 -0.25 0.525000000000006 255 128 128 255 
-0.00314766465487383 -0.25 0.288628542722637 255 128 128 255 
-0.144337567297406 -0.25 0.281420898437501 255 128 128 255 
-0.144337567297406 -0.25 0.431469726562501 255 128 128 255 
-0.0816762081381043 -0.25 0.368030839977051 255 128 128 255 
0.078996600786923 -0.25 0.388096546981643 255 128 128 255 
0.144337567297406 -0.25 0.393750000000005 255 128 128 255 
-0.144337567297406 -0.25 0.523602294921876 255 128 128 255 
-0.144337567297406 -0.25 0 255 128 128 255 
-0.0698430300589816 -0.25 0.0649135872000736 255 128 128 255 
-0.144337567297406 -0.25 0.8 255 128 128 255 
0.144337567297406 -0.25 0.131250000000002 255 128 128 255 
0.144337567297406 -0.25 0.262500000000003 255 128 128 255 
0.0737076210747064 -0.25 0.202665205302609 255 128 128 255 
0 -0.25 0 255 128 128 255 
0.144337567297406 -0.25 0 255 128 128 255 
0.288675134594813 -7.6002572295488E-17 0 128 255 128 255 
0.288675134594813 -6.31951880468759E-17 0.133331425487995 128 255 128 255 
0.252588852488582 -0.0625032740642554 0.0709682277318229 128 255 128 255 
0.144337567297406 -0.25 0 128 255 128 255 
0.21650635094611 -0.125 0 128 255 128 255 
0.180420068812756 -0.187503274111233 0.070447872051225 128 255 128 255 
0.288675134594813 -7.03967508836978E-17 0.399997138231993 128 255 128 255 
0.216287073398888 -0.125379799852748 0.396981820373422 128 255 128 255 
0.288675134594813 -6.4265591606969E-17 0.26666285097599 128 255 128 255 
0.144337567297406 -0.25 0.525000000000006 128 255 128 255 
0.214808840205141 -0.127940174849752 0.525441609812403 128 255 128 255 
0.216498789710102 -0.125013096444934 0.150541488204898 128 255 128 255 
0.144337567297406 -0.25 0.262500000000003 128 255 128 255 
0.144337567297406 -0.25 0.131250000000002 128 255 128 255 
0.144337567297406 -0.25 0.8 128 255 128 255 
0.209935585287549 -0.136380899965255 0.646453198456274 128 255 128 255 
0.216449641250302 -0.12509822407442 0.269171539888579 128 255 128 255 
0.288675134594813 -7.49124408923717E-17 0.8 128 255 128 255 
0.21650635094611 -0.125 0.8 128 255 128 255 
0.250948051355821 -0.0653452249913138 0.694946155986067 128 255 128 255 
0.288675134594813 -6.26501223453178E-17 0.533331425487995 128 255 128 255 
0.144337567297406 -0.25 0.393750000000005 128 255 128 255 
0.288675134594813 -7.03967508836978E-17 0.399997138231993 128 128 255 255 
0.288675134594813 -6.4265591606969E-17 0.26666285097599 128 128 255 255 
0.25133235464256 0.0646795921731657 0.325950595257016 128 128 255 255 
0.288675134594813 -6.31951880468759E-17 0.133331425487995 128 128 255 255 
0.225484397039459 0.109449568013623 0.116502908328211 128 128 255 255 
0.253281627198742 0.0613033530680589 0.189350575663904 128 128 255 255 
0.144337567297406 0.25 0.364062500000002 128 128 255 255 
0.217687080710311 0.122954916058395 0.396237233925719 128 128 255 255 
0.179163477461871 0.189679754175319 0.314559025654185 128 128 255 255 
0.144337567297406 0.25 0.8 128 128 255 255 
0.288675134594813 -7.49124408923717E-17 0.8 128 128 255 255 
0.214685276858577 0.128154192843953 0.647156008802634 128 128 255 255 
0.210292068670305 0.135763452634268 0.240905157894363 128 128 255 255 
0.188329653345692 0.173803471833427 0.151851990217476 128 128 255 255 
0.23094010767585 0.1 0 128 128 255 255 
0.200708666557271 0.152362392003406 0.0541257270820527 128 128 255 255 
0.173205080756888 0.2 0 128 128 255 255 
0.173205080756888 0.2 0.1 128 128 255 255 
0.144337567297406 0.25 0.257031250000001 128 128 255 255 
0.288675134594813 -7.6002572295488E-17 0 128 128 255 255 
0.258443693476234 0.0523623920034058 0.0624585834540515 128 128 255 255 
0.144337567297406 0.25 0.578125000000003 128 128 255 255 
0.171620123017491 0.202745227332485 0.4667684206557 128 128 255 255 
0.144337567297406 0.25 0.471093750000002 128 128 255 255 
0.288675134594813 -6.26501223453178E-17 0.533331425487995 128 128 255 255 
0.207400980508448 0.140770964219765 0.524323618525171 128 128 255 255 
0.144337567297406 0.25 0.15 128 128 255 255 
0.0814938140266395 0.25 0.495550110267712 128 255 255 255 
0.0642810023599359 0.25 0.408573053251834 128 255 255 255 
0.0350227672177348 0.25 0.471634769334764 128 255 255 255 
-0.0698748416042463 0.25 0.56687616944409 128 255 255 255 
0.0194901659607137 0.25 0.548323978751957 128 255 255 255 
-0.0549472290082127 0.25 0.504153197631111 128 255 255 255 
0.108599159073261 0.25 0.253836794478187 128 255 255 255 
0.0880047403162029 0.25 0.322833236978076 128 255 255 255 
0.121295367221335 0.25 0.299166991556263 128 255 255 255 
0.115470053837925 0.25 0.2 128 255 255 255 
4.59123512371973E-49 0.25 0.2 128 255 255 255 
0.0527383749501127 0.25 0.272040602026277 128 255 255 255 
0.0367769709951658 0.25 0.339319480555893 128 255 255 255 
-0.144337567297406 0.25 0.30570278114029 128 255 255 255 
-0.0872207867388571 0.25 0.250580840483859 128 255 255 255 
-0.144337567297406 0.25 0.227851390570145 128 255 255 255 
-0.115470053837925 0.25 0.2 128 255 255 255 
-0.0772063102152074 0.25 0.75991951050694 128 255 255 255 
-0.144337567297406 0.25 0.715351390570145 128 255 255 255 
-0.144337567297406 0.25 0.8 128 255 255 255 
-0.0319587452615475 0.25 0.319350030708862 128 255 255 255 
-0.144337567297406 0.25 0.467069911330338 128 255 255 255 
-0.0251634466205408 0.25 0.684218632767771 128 255 255 255 
0.0707504634837464 0.25 0.652666902879933 128 255 255 255 
-0.144337567297406 0.25 0.63070278114029 128 255 255 255 
0.144337567297406 0.25 0.364062500000002 128 255 255 255 
0.144337567297406 0.25 0.8 128 255 255 255 
5.55111512312578E-17 0.25 0.8 128 255 255 255 
-0.0980076240491357 0.25 0.382570360082573 128 255 255 255 
-0.144337567297406 0.25 0.386386346235314 128 255 255 255 
0.010917047710062 0.25 0.374896295045626 128 255 255 255 
0.144337567297406 0.25 0.15 128 255 255 255 
0.129903810567666 0.25 0.175 128 255 255 255 
0.144337567297406 0.25 0.257031250000001 128 255 255 255 
0.144337567297406 0.25 0.471093750000002 128 255 255 255 
-0.0721687836487031 0.25 0.8 128 255 255 255 
-0.0250666730919119 0.25 0.434342730998061 128 255 255 255 
-0.144337567297406 0.25 0.15 128 255 255 255 
0.144337567297406 0.25 0.578125000000003 128 255 255 255 
-0.211288572990417 0.134037456521873 0.552562762244833 255 128 255 255 
-0.174496648824383 0.197762938485665 0.55423014573314 255 128 255 255 
-0.183321071485096 0.182478590089848 0.495315417809791 255 128 255 255 
-0.189208132094504 0.172281902007116 0.625488930900628 255 128 255 255 
-0.144337567297406 0.25 0.63070278114029 255 128 255 255 
-0.235567000305227 0.0919859868847537 0.676324860700391 255 128 255 255 
-0.240553215185306 0.083349609375 0.8 255 128 255 255 
-0.212228542386904 0.132409381769597 0.747488354942771 255 128 255 255 
-0.175973766683478 0.195204495304945 0.216370593662453 255 128 255 255 
-0.227909028008084 0.10524998398636 0.262410728934236 255 128 255 255 
-0.187846270090398 0.174640716191125 0.297969796174257 255 128 255 255 
-0.192445391241356 0.1666748046875 0.8 255 128 255 255 
-0.180350871055086 0.187623128143287 0.713624104684489 255 128 255 255 
-0.288675134594813 5.4152907430841E-17 0.60879963821195 255 128 255 255 
-0.245758392615525 0.0743339776034513 0.589374519768269 255 128 255 255 
-0.195861742274246 0.160757511122046 0.0497666338934918 255 128 255 255 
-0.173205080756888 0.2 0.1 255 128 255 255 
-0.173205080756888 0.2 0.0500000000000001 255 128 255 255 
-0.2633670441102 0.0438348985618999 0.745182283548143 255 128 255 255 
-0.144337567297406 0.25 0.15 255 128 255 255 
-0.144337567297406 0.25 0.467069911330338 255 128 255 255 
-0.288675134594813 5.13094575367441E-17 0.440862325158698 255 128 255 255 
-0.247511746324749 0.0712970798954359 0.519799619462921 255 128 255 255 
-0.228753361424714 0.103787555610228 0.0988331694674589 255 128 255 255 
-0.288675134594813 4.68928292230115E-17 0.136462506052723 255 128 255 255 
-0.243475780507066 0.0782875777492742 0.176078099478996 255 128 255 255 
-0.173205080756888 0.2 0 255 128 255 255 
-0.20986005710517 0.136511718614539 0.170724653400067 255 128 255 255 
-0.144337567297406 0.25 0.30570278114029 255 128 255 255 
-0.144337567297406 0.25 0.227851390570145 255 128 255 255 
-0.288675134594813 5.89805981832114E-17 0.8 255 128 255 255 
-0.144337567297406 0.25 0.715351390570145 255 128 255 255 
-0.144337567297406 0.25 0.8 255 128 255 255 
-0.23094010767585 0.1 0 255 128 255 255 
-0.288675134594813 5.65667528070182E-17 0.704399819105975 255 128 255 255 
-0.288675134594813 4.84660076362434E-17 0.272925012105446 255 128 255 255 
-0.262183769426194 0.0458843904339086 0.211969086642851 255 128 255 255 
-0.252106003892583 0.0633395923648892 0.345898286789607 255 128 255 255 
-0.203167052927836 0.148104341904953 0.407397797528028 255 128 255 255 
-0.144337567297406 0.25 0.386386346235314 255 128 255 255 
-0.259260934572548 0.0509468889025571 0.0588239188800455 255 128 255 255 
-0.288675134594813 4.53196508033439E-17 0 255 128 255 255 
-0.144337567297406 -0.25 0.281420898437501 255 255 128 255 
-0.144337567297406 -0.25 0.431469726562501 255 255 128 255 
-0.180727985108891 -0.186969947441849 0.337169542928767 255 255 128 255 
-0.204238645670386 -0.146248288829833 0.120424600959237 255 255 128 255 
-0.247911446169516 -0.0706047794565218 0.142022920921074 255 255 128 255 
-0.246303431331045 -0.0733899428560778 0.057752189222714 255 255 128 255 
-0.204229952709332 -0.146263345480047 0.500633585243333 255 255 128 255 
-0.215014578189107 -0.127583826208476 0.383330630713241 255 255 128 255 
-0.288675134594813 5.4152907430841E-17 0.60879963821195 255 255 128 255 
-0.288675134594813 5.13094575367441E-17 0.440862325158698 255 255 128 255 
-0.21650635094611 -0.125 0 255 255 128 255 
-0.252590742770461 -0.0625 0 255 255 128 255 
-0.144337567297406 -0.25 0.61573486328125 255 255 128 255 
-0.144337567297406 -0.25 0.523602294921876 255 255 128 255 
-0.228534481554227 -0.104166666666667 0.721489053433196 255 255 128 255 
-0.288675134594813 5.89805981832114E-17 0.8 255 255 128 255 
-0.288675134594813 5.65667528070182E-17 0.704399819105975 255 255 128 255 
-0.144337567297406 -0.25 0.131372070312501 255 255 128 255 
-0.177355993070235 -0.19281040897552 0.0629500259868209 255 255 128 255 
-0.288675134594813 4.68928292230115E-17 0.136462506052723 255 255 128 255 
-0.261120444006436 -0.0477261240859083 0.200966330617647 255 255 128 255 
-0.219220060666603 -0.120299716887112 0.252454883391346 255 255 128 255 
-0.267894426765355 -0.0359932417778656 0.0840621807804268 255 255 128 255 
-0.288675134594813 4.84660076362434E-17 0.272925012105446 255 255 128 255 
-0.21650635094611 -0.125 0.8 255 255 128 255 
-0.144337567297406 -0.25 0 255 255 128 255 
-0.178033460232951 -0.191637001429236 0.196418113275146 255 255 128 255 
-0.144337567297406 -0.25 0.8 255 255 128 255 
-0.252896768757595 -0.0619699474418486 0.337393720994803 255 255 128 255 
-0.288675134594813 4.53196508033439E-17 0 255 255 128 255 
-0.0827787338251541 -0.030175663025653 0.8 128 255 0 255 
0.0899858786303746 -0.0262120078382268 0.8 128 255 0 255 
0.0208201415694579 0.0860909804753414 0.8 128 255 0 255 
-0.288675134594813 5.89805981832114E-17 0.8 128 255 0 255 
-0.21650635094611 -0.125 0.8 128 255 0 255 
-0.195707243848697 -0.00162765918675968 0.8 128 255 0 255 
-0.144337567297406 -0.25 0.8 128 255 0 255 
0.00180190523076267 -0.139096644036845 0.8 128 255 0 255 
0.184876351896633 0.0246972717195687 0.8 128 255 0 255 
0.288675134594813 -7.49124408923717E-17 0.8 128 255 0 255 
0.144337567297406 0.25 0.8 128 255 0 255 
-0.240553215185306 0.083349609375 0.8 128 255 0 255 
-0.150025131563889 0.0636823339763255 0.8 128 255 0 255 
-0.0682651406069356 0.150749296274208 0.8 128 255 0 255 
0.21650635094611 -0.125 0.8 128 255 0 255 
5.55111512312578E-17 0.25 0.8 128 255 0 255 
-0.16282184301766 0.116114884670296 0.8 128 255 0 255 
-0.192445391241356 0.1666748046875 0.8 128 255 0 255 
0.144337567297406 -0.25 0.8 128 255 0 255 
-0.0721687836487031 0.25 0.8 128 255 0 255 
-0.119304091032523 0.204356325684061 0.8 128 255 0 255 
-0.144337567297406 0.25 0.8 128 255 0 255 
-0.0488182100525826 -0.0326131095756883 0 0 128 255 255 
-0.0769284485954478 -0.0946464784549482 0 0 128 255 255 
-0.0932756162659028 -0.0350141551577602 0 0 128 255 255 
0.0321659833657533 -0.145812899659449 0 0 128 255 255 
0.144337567297406 -0.25 0 0 128 255 255 
0 -0.25 0 0 128 255 255 
0.0969238409089914 -0.0428196762188178 0 0 128 255 255 
0.00173904087924629 -0.0639054310637201 0 0 128 255 255 
0.00516190591619784 -0.00350465524548257 0 0 128 255 255 
-0.102974496476313 0.127130319556858 0 0 128 255 255 
-0.0807879321970065 0.0340051720434696 0 0 128 255 255 
-0.173904872499893 0.0677937428013243 0 0 128 255 255 
-0.166666575610393 -0.0467346600055038 0 0 128 255 255 
-0.21650635094611 -0.125 0 0 128 255 255 
-0.252590742770461 -0.0625 0 0 128 255 255 
-0.0896542086714008 0.2 0 0 128 255 255 
-0.00305166829295699 0.2 0 0 128 255 255 
-0.0554986625404034 0.163723768853346 0 0 128 255 255 
0.288675134594813 -7.6002572295488E-17 0 0 128 255 255 
0.21650635094611 -0.125 0 0 128 255 255 
0.19559515013253 -0.00316974995253036 0 0 128 255 255 
-0.173205080756888 0.2 0 0 128 255 255 
-0.132111853857236 0.164763428847106 0 0 128 255 255 
0.0566540886505223 0.0878773132257136 0 0 128 255 255 
0.0835508720854869 0.2 0 0 128 255 255 
0.11437401413402 0.15152634420696 0 0 128 255 255 
0.144004660947537 0.118284471617281 0 0 128 255 255 
-0.0263142767209423 0.127764755856525 0 0 128 255 255 
-0.177508628725526 0.0137660637098225 0 0 128 255 255 
-0.0637681920090862 -0.178180248723523 0 0 128 255 255 
-0.129800226903124 -0.150406495633878 0 0 128 255 255 
0.23094010767585 0.1 0 0 128 255 255 
-0.162627282253236 0.131937498241058 0 0 128 255 255 
0.173205080756888 0.2 0 0 128 255 255 
0.144850013520405 0.0520187006537311 0 0 128 255 255 
-0.14746057566757 -0.104205750990917 0 0 128 255 255 
0.122483435629565 -0.140908143969567 0 0 128 255 255 
-0.23094010767585 0.1 0 0 128 255 255 
-0.144337567297406 -0.25 0 0 128 255 255 
0.0277097539305275 0.15391051727056 0 0 128 255 255 
-0.288675134594813 4.53196508033439E-17 0 0 128 255 255 
-0.0240562612162281 0.334068652482761 0.2 255 0 128 255 
-0.115470053837925 0.460407332244019 0.2 255 0 128 255 
-0.115470053837925 0.25 0.2 255 0 128 255 
0.115470053837925 0.25 0.2 255 0 128 255 
4.59123512371973E-49 0.25 0.2 255 0 128 255 
-0.00481125224321536 0.459935930169785 0.2 255 0 128 255 
0.115470053837925 0.575 0.2 255 0 128 255 
0.115470053837925 0.9 0.2 255 0 128 255 
-6.93889390390723E-18 0.763800916530502 0.2 255 0 128 255 
-0.115470053837925 0.68020366612201 0.2 255 0 128 255 
-0.115470053837925 0.9 0.2 255 0 128 255 
0.144337567297406 0.25 0.15 0 255 255 255 
0.173205080756888 0.2 0.1 0 255 255 255 
0.1884636124209 0.23628317958416 0.0735714479090327 0 255 255 255 
0.23094010767585 0.2 5.05716785989325E-17 0 255 255 255 
0.23094010767585 0.55 5.04596584918578E-17 0 255 255 255 
0.19176276038171 0.331416387709234 0.0678571560192224 0 255 255 255 
0.202072594216369 0.2 0.05 0 255 255 255 
0.115470053837925 0.575 0.2 0 255 255 255 
0.115470053837925 0.25 0.2 0 255 255 255 
0.128666615752894 0.34451557937785 0.177142884278046 0 255 255 255 
0.138151660931692 0.397578584584965 0.160714304116281 0 255 255 255 
0.164132406838542 0.420798758962009 0.115714332187079 0 255 255 255 
0.129903810567666 0.25 0.175 0 255 255 255 
0.173205080756888 0.765 0.1 0 255 255 255 
0.23094010767585 0.9 5.03476383847956E-17 0 255 255 255 
0.115470053837925 0.9 0.2 0 255 255 255 
0.173205080756888 0.9 0.1 0 255 255 255 
0.115470053837925 0.66643459976003 -0.2 255 0 255 255 
0.23094010767585 0.55 5.04596584918578E-17 255 0 255 255 
0.158143769386729 0.499179508596597 -0.126086956521729 255 0 255 255 
0.167127709502272 0.758723073633283 -0.110526315789453 255 0 255 255 
0.173205080756888 0.9 -0.1 255 0 255 255 
0.200553251402715 0.777180768408321 -0.0526315789473632 255 0 255 255 
0.170694862195195 0.347066134746102 -0.104347826086955 255 0 255 255 
0.173205080756888 0.2 -0.1 255 0 255 255 
0.115470053837925 0.2 -0.2 255 0 255 255 
0.115470053837925 0.9 -0.2 255 0 255 255 
0.115470053837925 0.433217299880015 -0.2 255 0 255 255 
0.23094010767585 0.2 5.05716785989325E-17 255 0 255 255 
0.23094010767585 0.9 5.03476383847956E-17 255 0 255 255 
0.115470053837925 0.2 -0.2 255 255 0 255 
6.24500451351651E-17 0.2 -0.2 255 255 0 255 
0.0546963412917675 0.282858094699132 -0.2 255 255 0 255 
0.115470053837925 0.433217299880015 -0.2 255 255 0 255 
-0.0121547425092315 0.298215078915829 -0.2 255 255 0 255 
-0.115470053837925 0.2 -0.2 255 255 0 255 
6.24500451351651E-17 0.9 -0.2 255 255 0 255 
0.019908629972061 0.809422741317245 -0.2 255 255 0 255 
-0.115470053837925 0.9 -0.2 255 255 0 255 
-0.115470053837925 0.55 -0.2 255 255 0 255 
-0.015926903977644 0.680679106826215 -0.2 255 255 0 255 
0.115470053837925 0.66643459976003 -0.2 255 255 0 255 
-0.115470053837925 0.375 -0.2 255 255 0 255 
0.115470053837925 0.9 -0.2 255 255 0 255 
-0.115470053837925 0.725 -0.2 255 255 0 255 
-0.186870175885474 0.299839396237343 -0.076331360947027 255 0 0 255 
-0.115470053837925 0.2 -0.2 255 0 0 255 
-0.173205080756888 0.2 -0.1 255 0 0 255 
-0.23094010767585 0.425186629982408 -4.05246271070471E-17 255 0 0 255 
-0.23094010767585 0.312593314991204 -2.93086869820766E-17 255 0 0 255 
-0.115470053837925 0.725 -0.2 255 0 0 255 
-0.23094010767585 0.662593314991204 -2.92830026874472E-17 255 0 0 255 
-0.173205080756888 0.796898328747801 -0.1 255 0 0 255 
-0.115470053837925 0.55 -0.2 255 0 0 255 
-0.165860092124742 0.418769890203149 -0.112721893491892 255 0 0 255 
-0.23094010767585 0.9 -3.53886130217097E-17 255 0 0 255 
-0.23094010767585 0.2 -3.54399816109686E-17 255 0 0 255 
-0.204805613242086 0.242486542245709 -0.0452662721894054 255 0 0 255 
-0.202072594216369 0.2 -0.05 255 0 0 255 
-0.115470053837925 0.375 -0.2 255 0 0 255 
-0.115470053837925 0.9 -0.2 255 0 0 255 
-0.115470053837925 0.25 0.2 0 255 0 255 
-0.115470053837925 0.460407332244019 0.2 0 255 0 255 
-0.147220501515927 0.366055208039796 0.145006611458643 0 255 0 255 
-0.175154478283047 0.274848746535297 0.096623544440543 0 255 0 255 
-0.197920122709616 0.340820095873577 0.0571922916266779 0 255 0 255 
-0.191828165750744 0.255516901856354 0.0677438705969675 0 255 0 255 
-0.175456667535445 0.401538926732332 0.0961001373018889 0 255 0 255 
-0.168079448361416 0.326820968225048 0.108877855729878 0 255 0 255 
-0.23094010767585 0.662593314991204 -2.92830026874472E-17 0 255 0 255 
-0.23094010767585 0.425186629982408 -4.05246271070471E-17 0 255 0 255 
-0.199954209239629 0.467542306763549 0.0536691504097046 0 255 0 255 
-0.164109055850635 0.506456054759688 0.115754777284542 0 255 0 255 
-0.200553251402771 0.81346123979302 0.0526315789472656 0 255 0 255 
-0.23094010767585 0.9 -3.53886130217097E-17 0 255 0 255 
-0.144337567297406 0.25 0.15 0 255 0 255 
-0.167127709502272 0.791251644181247 0.110526315789453 0 255 0 255 
-0.173205080756888 0.2 0.1 0 255 0 255 
-0.173205080756888 0.9 0.1 0 255 0 255 
-0.2107885527878 0.261915666872894 0.0349035169176162 0 255 0 255 
-0.202072594216369 0.2 0.05 0 255 0 255 
-0.23094010767585 0.312593314991204 -2.93086869820766E-17 0 255 0 255 
-0.23094010767585 0.2 -3.54399816109686E-17 0 255 0 255 
-0.115470053837925 0.68020366612201 0.2 0 255 0 255 
-0.115470053837925 0.9 0.2 0 255 0 255 
0.0556555620514811 0.9 0.0167807702891028 0 0 255 255 
-0.173205080756888 0.9 0.1 0 0 255 255 
-0.0293873796763517 0.9 0.129195192572276 0 0 255 255 
6.24500451351651E-17 0.9 -0.2 0 0 255 255 
-0.0557405745763474 0.9 -0.0728955946415891 0 0 255 255 
0.0424145353563359 0.9 -0.110930445616914 0 0 255 255 
0.0966863080006575 0.9 -0.0985374188319527 0 0 255 255 
0.173205080756888 0.9 -0.1 0 0 255 255 
0.115470053837925 0.9 -0.2 0 0 255 255 
0.23094010767585 0.9 5.03476383847956E-17 0 0 255 255 
0.158251457810277 0.9 0.00419519257227574 0 0 255 255 
-0.23094010767585 0.9 -3.53886130217097E-17 0 0 255 255 
-0.143838954211753 0.9 -0.0432238986603973 0 0 255 255 
-0.115470053837925 0.9 -0.2 0 0 255 255 
0.115470053837925 0.9 0.2 0 0 255 255 
-0.115470053837925 0.9 0.2 0 0 255 255 
0.173205080756888 0.9 0.1 0 0 255 255 
-0.23094010767585 0.2 -3.54399816109686E-17 255 255 255 255 
-0.202072594216369 0.2 -0.05 255 255 255 255 
-0.202072594216369 0.2 -6.93889390390723E-18 255 255 255 255 
-0.173205080756888 0.2 0 255 255 255 255 
0.0835508720854869 0.2 0 255 255 255 255 
-0.00305166829295699 0.2 0 255 255 255 255 
0.0223682031177862 0.2 -0.033129283775701 255 255 255 255 
0.115470053837925 0.2 -0.2 255 255 255 255 
0.173205080756888 0.2 -0.1 255 255 255 255 
0.108814102579244 0.2 -0.0971199092289251 255 255 255 255 
0.173205080756888 0.2 0 255 255 255 255 
0.0986551440949439 0.2 -0.0466416962474152 255 255 255 255 
-0.0590991402589205 0.2 -0.0927744667978116 255 255 255 255 
0.02902083587858 0.2 -0.0894376889017258 255 255 255 255 
-0.0200682239743375 0.2 -0.0430729421090568 255 255 255 255 
-0.0896542086714008 0.2 0 255 255 255 255 
-0.122126712856404 0.2 -0.0785548933595623 255 255 255 255 
0.0633284201502385 0.2 -0.14664007022441 255 255 255 255 
6.24500451351651E-17 0.2 -0.2 255 255 255 255 
0.23094010767585 0.2 5.05716785989325E-17 255 255 255 255 
0.202072594216369 0.2 0.05 255 255 255 255 
-0.115470053837925 0.2 -0.2 255 255 255 255 
-0.0363818403609733 0.2 -0.14555466494789 255 255 255 255 
-0.202072594216369 0.2 0.05 255 255 255 255 
-0.173205080756888 0.2 -0.1 255 255 255 255 
-0.173205080756888 0.2 0.0500000000000001 255 255 255 255 
-0.173205080756888 0.2 0.1 255 255 255 255 
0.173205080756888 0.2 0.1 255 255 255 255 

3 0 1 2 
3 3 4 0 
3 5 6 7 
3 8 1 0 
3 6 9 7 
3 9 10 7 
3 11 10 12 
3 8 13 14 
3 8 4 13 
3 4 9 13 
3 4 11 12 
3 9 4 12 
3 4 8 0 
3 11 4 15 
3 5 16 17 
3 18 3 2 
3 10 9 12 
3 19 20 21 
3 22 6 17 
3 23 6 22 
3 3 0 2 
3 4 3 15 
3 13 20 14 
3 9 6 21 
3 16 22 17 
3 10 5 7 
3 6 19 21 
3 6 5 17 
3 1 18 2 
3 20 9 21 
3 9 20 13 
3 6 23 19 
3 24 25 26 
3 27 28 29 
3 30 31 32 
3 33 31 34 
3 35 36 37 
3 38 33 39 
3 31 36 40 
3 41 42 43 
3 44 39 34 
3 28 24 26 
3 32 31 40 
3 32 35 25 
3 44 41 43 
3 37 27 29 
3 25 35 26 
3 44 31 30 
3 36 31 45 
3 35 37 29 
3 36 35 40 
3 39 33 34 
3 42 39 43 
3 35 32 40 
3 28 35 29 
3 42 38 39 
3 39 44 43 
3 31 44 34 
3 35 28 26 
3 31 33 45 
3 46 47 48 
3 49 50 51 
3 52 53 54 
3 55 56 57 
3 58 50 59 
3 50 60 61 
3 60 62 61 
3 47 49 51 
3 50 63 59 
3 58 64 54 
3 49 65 66 
3 64 52 54 
3 67 55 57 
3 68 52 69 
3 56 70 57 
3 58 53 48 
3 67 57 71 
3 67 71 68 
3 53 70 46 
3 53 52 68 
3 53 46 48 
3 47 58 48 
3 58 72 64 
3 58 47 51 
3 60 50 66 
3 72 58 59 
3 70 53 71 
3 71 53 68 
3 53 58 54 
3 57 70 71 
3 50 49 66 
3 63 72 59 
3 67 68 69 
3 65 60 66 
3 63 50 61 
3 62 63 61 
3 50 58 51 
3 73 74 75 
3 76 77 78 
3 79 80 81 
3 82 83 84 
3 80 84 85 
3 86 87 88 
3 87 89 88 
3 90 91 92 
3 84 93 85 
3 94 76 78 
3 77 95 96 
3 94 97 76 
3 74 98 80 
3 95 77 76 
3 93 83 87 
3 99 95 100 
3 97 95 76 
3 82 84 79 
3 101 86 102 
3 100 95 90 
3 74 85 103 
3 104 105 106 
3 84 80 79 
3 77 73 75 
3 83 89 87 
3 98 74 107 
3 100 90 108 
3 95 91 90 
3 74 109 75 
3 109 77 75 
3 109 94 78 
3 80 98 81 
3 89 110 88 
3 105 82 79 
3 94 101 102 
3 99 111 96 
3 111 77 96 
3 109 74 103 
3 95 97 91 
3 86 93 87 
3 107 74 73 
3 98 106 81 
3 74 80 85 
3 109 93 101 
3 106 79 81 
3 95 99 96 
3 77 109 78 
3 93 86 101 
3 108 90 92 
3 106 105 79 
3 94 109 101 
3 83 93 84 
3 111 107 73 
3 93 109 103 
3 85 93 103 
3 77 111 73 
3 112 113 114 
3 115 116 113 
3 117 118 119 
3 120 121 122 
3 123 124 119 
3 125 117 126 
3 127 128 129 
3 124 116 115 
3 118 117 130 
3 131 128 120 
3 113 132 114 
3 133 125 134 
3 135 136 137 
3 127 129 138 
3 134 125 126 
3 121 139 137 
3 120 140 141 
3 142 118 130 
3 143 124 144 
3 120 128 139 
3 127 138 145 
3 112 134 126 
3 112 115 113 
3 146 142 130 
3 118 123 119 
3 147 121 148 
3 121 147 149 
3 117 112 126 
3 150 132 151 
3 128 135 139 
3 121 150 122 
3 117 125 146 
3 112 117 115 
3 137 136 148 
3 135 127 145 
3 150 133 134 
3 150 121 149 
3 133 150 149 
3 131 120 141 
3 116 124 143 
3 135 128 127 
3 135 145 152 
3 117 146 130 
3 121 137 148 
3 140 150 151 
3 147 133 149 
3 145 153 152 
3 116 132 113 
3 139 135 137 
3 121 120 139 
3 140 120 122 
3 124 123 144 
3 132 150 114 
3 150 140 122 
3 136 135 152 
3 117 124 115 
3 124 117 119 
3 112 150 134 
3 153 136 152 
3 136 147 148 
3 150 112 114 
3 154 155 156 
3 157 158 159 
3 155 160 161 
3 162 163 160 
3 164 159 165 
3 166 160 167 
3 168 169 170 
3 160 163 161 
3 166 162 160 
3 171 157 172 
3 173 158 174 
3 158 175 174 
3 158 173 176 
3 177 173 174 
3 169 168 178 
3 179 171 172 
3 159 158 176 
3 164 157 159 
3 175 157 180 
3 166 181 168 
3 164 179 172 
3 157 164 172 
3 155 161 156 
3 161 163 182 
3 163 177 182 
3 154 175 180 
3 160 155 167 
3 173 183 176 
3 161 175 156 
3 175 154 156 
3 183 159 176 
3 171 154 180 
3 159 183 165 
3 177 175 182 
3 175 158 157 
3 168 181 178 
3 157 171 180 
3 175 161 182 
3 175 177 174 
3 162 168 170 
3 162 166 168 
3 184 185 186 
3 187 188 189 
3 184 190 191 
3 192 193 194 
3 195 189 196 
3 189 184 196 
3 185 194 186 
3 194 197 186 
3 193 192 198 
3 192 185 198 
3 197 194 199 
3 189 195 187 
3 200 197 201 
3 185 192 194 
3 195 196 200 
3 195 200 201 
3 184 197 196 
3 190 202 191 
3 185 184 191 
3 197 199 203 
3 188 184 189 
3 196 197 200 
3 198 185 202 
3 202 185 191 
3 190 184 188 
3 201 197 204 
3 197 184 186 
3 197 203 204 
3 205 201 204 
3 203 205 204 
3 206 207 208 
3 209 210 211 
3 212 213 214 
3 215 216 217 
3 218 219 220 
3 221 222 223 
3 224 225 226 
3 227 221 228 
3 229 230 231 
3 232 229 231 
3 216 215 233 
3 216 218 234 
3 221 215 228 
3 207 235 236 
3 237 224 226 
3 215 238 228 
3 222 233 223 
3 239 232 231 
3 237 226 240 
3 207 236 241 
3 216 229 214 
3 207 218 208 
3 218 216 208 
3 218 207 241 
3 239 237 232 
3 209 212 242 
3 243 227 238 
3 229 212 214 
3 244 219 236 
3 215 221 223 
3 216 206 208 
3 226 212 240 
3 207 209 235 
3 240 229 232 
3 212 209 213 
3 230 239 231 
3 214 213 206 
3 229 216 233 
3 215 217 238 
3 216 214 206 
3 222 230 245 
3 209 207 213 
3 217 243 238 
3 233 215 223 
3 246 217 234 
3 212 229 240 
3 213 207 206 
3 217 216 234 
3 225 212 226 
3 238 227 228 
3 212 225 242 
3 246 218 220 
3 235 244 236 
3 243 217 246 
3 225 210 242 
3 219 218 241 
3 210 209 242 
3 236 219 241 
3 230 229 245 
3 233 222 245 
3 211 244 235 
3 229 233 245 
3 218 246 234 
3 237 240 232 
3 209 211 235 
3 247 248 249 
3 250 247 251 
3 247 252 248 
3 250 253 252 
3 253 254 255 
3 252 256 248 
3 254 257 255 
3 253 256 252 
3 250 252 247 
3 251 247 249 
3 256 253 255 
3 256 255 257 
3 258 259 260 
3 261 262 263 
3 261 260 264 
3 265 266 267 
3 268 265 267 
3 258 268 267 
3 263 262 269 
3 266 270 267 
3 261 263 260 
3 265 262 271 
3 258 263 269 
3 271 262 272 
3 273 265 271 
3 260 259 264 
3 270 258 267 
3 263 258 260 
3 262 265 269 
3 269 265 268 
3 273 271 274 
3 258 269 268 
3 274 271 272 
3 275 276 277 
3 278 279 280 
3 281 282 283 
3 284 279 278 
3 281 285 277 
3 275 284 278 
3 281 286 282 
3 280 279 287 
3 276 281 277 
3 276 278 280 
3 276 275 278 
3 285 281 283 
3 276 280 287 
3 276 286 281 
3 285 275 277 
3 288 289 290 
3 291 288 290 
3 289 292 290 
3 292 289 293 
3 294 295 296 
3 291 297 298 
3 292 291 290 
3 299 291 298 
3 293 300 292 
3 297 291 300 
3 301 299 295 
3 298 297 302 
3 301 295 294 
3 299 298 295 
3 298 302 296 
3 300 291 292 
3 295 298 296 
3 303 304 305 
3 306 303 307 
3 308 309 310 
3 309 311 312 
3 309 313 310 
3 314 307 315 
3 314 315 316 
3 312 304 303 
3 312 317 304 
3 312 311 317 
3 313 318 310 
3 311 309 308 
3 315 305 316 
3 307 303 315 
3 306 309 312 
3 318 308 310 
3 306 312 303 
3 303 305 315 
3 319 320 321 
3 322 323 324 
3 325 323 326 
3 327 328 329 
3 325 330 329 
3 331 332 327 
3 325 321 330 
3 333 319 321 
3 327 334 331 
3 333 321 326 
3 335 333 322 
3 334 336 331 
3 332 331 336 
3 337 338 324 
3 323 337 324 
3 339 340 337 
3 321 320 330 
3 320 341 330 
3 330 327 329 
3 341 327 330 
3 323 328 339 
3 323 339 337 
3 335 322 324 
3 338 335 324 
3 338 337 340 
3 328 323 329 
3 333 326 322 
3 321 325 326 
3 323 325 329 
3 342 336 334 
3 327 341 334 
3 326 323 322 
3 341 342 334 
3 343 344 345 
3 346 347 348 
3 349 350 351 
3 343 347 344 
3 352 350 353 
3 354 344 355 
3 351 348 349 
3 350 343 353 
3 347 343 348 
3 347 346 356 
3 357 345 358 
3 357 343 345 
3 348 343 349 
3 344 347 355 
3 349 343 350 
3 356 354 355 
3 345 344 358 
3 343 357 359 
3 343 359 353 
3 351 346 348 
3 359 352 353 
3 347 356 355 
3 360 361 362 
3 361 363 362 
3 364 365 366 
3 367 368 369 
3 369 370 371 
3 372 373 374 
3 372 375 376 
3 367 377 378 
3 370 379 380 
3 375 363 376 
3 381 378 382 
3 379 370 368 
3 367 369 377 
3 377 373 378 
3 369 373 377 
3 365 375 374 
3 381 372 376 
3 374 373 366 
3 364 373 371 
3 363 383 362 
3 365 374 366 
3 384 363 361 
3 384 381 376 
3 373 369 371 
3 368 370 369 
3 373 364 366 
3 373 372 382 
3 363 385 383 
3 363 384 376 
3 383 385 386 
3 387 370 380 
3 383 360 362 
3 370 364 371 
3 375 372 374 
3 378 373 382 
3 372 381 382 

