ply
format ascii 1.0
element vertex 194
property float32 x
property float32 y
property float32 z
property uchar red
property uchar green
property uchar blue
property uchar alpha
element face 188
property list uint8 int32 vertex_indices
end_header
0.433012701892219 -0.25 0 255 128 128 255 
0.28431119757933 -0.275022017942325 0.121661671203248 255 128 128 255 
0.21650635094611 -0.375 0 255 128 128 255 
0.170077179499854 -0.291673250614965 0.220265288035564 255 128 128 255 
0.317562838856307 -0.183344990498311 0.266620038006757 255 128 128 255 
0.202082689617376 -0.116672495249155 0.533310019003379 255 128 128 255 
2.51427156489029E-17 -0.3 0.4 255 128 128 255 
2.26668710330875E-17 -0.5 0 255 128 128 255 
0.0866025403784439 -0.05 0.8 255 128 128 255 
4.95168923314422E-18 -0.1 0.8 255 128 128 255 
0.317562838856307 -0.183344990498311 0.266620038006757 128 255 128 255 
0.433012701892219 -0.25 0 128 255 128 255 
0.433012701892219 -0.0832763671875001 -1.54074395550979E-33 128 255 128 255 
0.318480481370103 0.000586767298193169 0.264500833397318 128 255 128 255 
0.433012701892219 0.25 0 128 255 128 255 
0.319398123883899 0.18440459280303 0.262381628787878 128 255 128 255 
0.433012701892219 0.0833618164062499 0 128 255 128 255 
0.203000332131171 0.117202296401515 0.531190814393939 128 255 128 255 
0.202082689617376 -0.116672495249155 0.533310019003379 128 255 128 255 
0.0866025403784439 0.05 0.8 128 255 128 255 
0.0866025403784439 -0.05 0.8 128 255 128 255 
0.125967331459555 0.390909090909091 0.0727272727272728 128 128 255 255 
0.0629836657297191 0.412121212121232 0.103030303030331 128 128 255 255 
0.0755898381034487 0.362130096902947 0.188456179440053 128 128 255 255 
-1.12902838146694E-13 0.433333333333163 0.133333333333544 128 128 255 255 
4.9413694489029E-17 0.266666666666608 0.466666666666785 128 128 255 255 
0.0577881729042348 0.303653232980215 0.325965499675097 128 128 255 255 
0.203000332131171 0.117202296401515 0.531190814393939 128 128 255 255 
0.319398123883899 0.18440459280303 0.262381628787878 128 128 255 255 
0.210095167189133 0.260947798924762 0.235507399486306 128 128 255 255 
0.127868670605966 0.270556347843507 0.311237281522438 128 128 255 255 
0.274241377865072 0.341666666666667 0 128 128 255 255 
0.115470053837925 0.433333333333333 0 128 128 255 255 
3.64729733725143E-17 0.1 0.8 128 128 255 255 
0.0792099526699694 0.184679757315308 0.539176710376376 128 128 255 255 
0.0866025403784439 0.05 0.8 128 128 255 255 
0.433012701892219 0.25 0 128 128 255 255 
-0.173410105710434 0.100118371212121 0.599526515151517 128 255 255 255 
-0.0866025403784438 0.05 0.8 128 255 255 255 
3.64729733725143E-17 0.1 0.8 128 255 255 255 
-0.260012646088878 0.150118371212121 0.399526515151517 128 255 255 255 
-0.203206774023339 0.254780143162659 0.255796742307622 128 255 255 255 
-0.346615186467322 0.200118371212121 0.199526515151517 128 255 255 255 
-0.109209959919513 0.194084865661384 0.485725469161793 128 255 255 255 
-0.0364033199731711 0.186917177442664 0.584130711942859 128 255 255 255 
-0.0903093656781029 0.298649561620631 0.298420603589544 128 255 255 255 
4.9413694489029E-17 0.266666666666608 0.466666666666785 128 255 255 255 
-1.12902838146694E-13 0.433333333333163 0.133333333333544 128 255 255 255 
-0.138852108121144 0.344043022603031 0.15158135079136 128 255 255 255 
-0.274241377865072 0.341666666666667 0 128 255 255 255 
-0.433012701892219 0.25 0 128 255 255 255 
-0.125967331459555 0.390909090909091 0.0727272727272728 128 255 255 255 
-0.115470053837925 0.433333333333333 0 128 255 255 255 
-0.173410105710434 0.100118371212121 0.599526515151517 255 128 255 255 
-0.0866025403784439 -0.05 0.8 255 128 255 255 
-0.0866025403784438 0.05 0.8 255 128 255 255 
-0.318834859383144 -0.184079391891895 0.263682432432422 255 128 255 255 
-0.202718699880794 -0.117039695945947 0.531841216216211 255 128 255 255 
-0.282705169718973 -0.0325810381406246 0.347120376645808 255 128 255 255 
-0.433012701892219 -0.25 0 255 128 255 255 
-0.433012701892219 -0.0832275390625 0 255 128 255 255 
-0.347111131576257 0.021677280688944 0.198381178982931 255 128 255 255 
-0.260012646088878 0.150118371212121 0.399526515151517 255 128 255 255 
-0.346615186467322 0.200118371212121 0.199526515151517 255 128 255 255 
-0.433012701892219 0.25 0 255 128 255 255 
-0.433012701892219 0.0833862304687501 0 255 128 255 255 
-0.0866025403784439 -0.05 0.8 255 255 128 255 
-0.202718699880794 -0.117039695945947 0.531841216216211 255 255 128 255 
4.95168923314422E-18 -0.1 0.8 255 255 128 255 
-0.21650635094611 -0.375 0 255 255 128 255 
-0.318834859383144 -0.184079391891895 0.263682432432422 255 255 128 255 
-0.433012701892219 -0.25 0 255 255 128 255 
-0.185968715297468 -0.244869087837842 0.295523648648632 255 255 128 255 
2.51427156489029E-17 -0.3 0.4 255 255 128 255 
2.26668710330875E-17 -0.5 0 255 255 128 255 
-0.0866025403784438 0.05 0.8 128 255 0 255 
-0.0866025403784439 -0.05 0.8 128 255 0 255 
3.64729733725143E-17 0.1 0.8 128 255 0 255 
0.0866025403784439 0.05 0.8 128 255 0 255 
0.0866025403784439 -0.05 0.8 128 255 0 255 
4.95168923314422E-18 -0.1 0.8 128 255 0 255 
-0.288219444206874 0.153444581195139 0 0 128 255 255 
-0.243401633645855 0.244882664749445 0 0 128 255 255 
-0.173205080756888 0.2 0 0 128 255 255 
0.433012701892219 -0.25 0 0 128 255 255 
0.173205080756888 0.2 0 0 128 255 255 
0.433012701892219 -0.0832763671875001 -1.54074395550979E-33 0 128 255 255 
0.101036297108185 -0.183333333333333 0 0 128 255 255 
-0.21650635094611 -0.375 0 0 128 255 255 
-0.433012701892219 -0.25 0 0 128 255 255 
-0.433012701892219 -0.0832275390625 0 0 128 255 255 
-0.257937789820865 0.0297830812408565 0 0 128 255 255 
0.433012701892219 0.25 0 0 128 255 255 
0.433012701892219 0.0833618164062499 0 0 128 255 255 
-0.334437358317974 0.214090400899445 0 0 128 255 255 
-0.433012701892219 0.25 0 0 128 255 255 
-0.274241377865072 0.341666666666667 0 0 128 255 255 
-0.144337567297406 0.316666666666667 0 0 128 255 255 
0.21650635094611 -0.375 0 0 128 255 255 
1.38777878078145E-17 0.2 0 0 128 255 255 
2.26668710330875E-17 -0.5 0 0 128 255 255 
0.274241377865072 0.341666666666667 0 0 128 255 255 
0.144337567297406 0.316666666666667 0 0 128 255 255 
-0.115470053837925 0.433333333333333 0 0 128 255 255 
0.115470053837925 0.433333333333333 0 0 128 255 255 
-0.433012701892219 0.0833862304687501 0 0 128 255 255 
0.0839820743474221 0.560590487378889 0.0484870732315873 255 0 128 255 
0.0419968172352895 0.730271883848687 0.0242468737359019 255 0 128 255 
-1.60901569015937E-18 0.617782440786181 0.0806335883468054 255 0 128 255 
-7.68626159454297E-18 0.710592275690571 0.0541164926598369 255 0 128 255 
0.125967331459555 0.390909090909091 0.0727272727272728 255 0 128 255 
0.0629836657297191 0.412121212121232 0.103030303030331 255 0 128 255 
6.34765817179535E-19 0.525557887059651 0.1069834608401 255 0 128 255 
-1.12902838146694E-13 0.433333333333163 0.133333333333544 255 0 128 255 
4.9702948032324E-17 0.9 -2.60465484400508E-17 255 0 128 255 
-2.14306567304351E-17 0.804572672950679 0.0272649505855204 255 0 128 255 
0.0839820743474221 0.560590487378889 0.0484870732315873 0 255 255 255 
0.0618840335347681 0.649898656061133 -0.0357287634198382 0 255 255 255 
0.0419968172352895 0.730271883848687 0.0242468737359019 0 255 255 255 
0.144337567297406 0.316666666666667 0 0 255 255 255 
0.147011471333337 0.305860212162145 -0.084877112548265 0 255 255 255 
0.119549985172776 0.416844487152175 -0.0690222161211179 0 255 255 255 
0.0920884990122147 0.527828762142205 -0.0531673196939707 0 255 255 255 
0.115470053837925 0.433333333333333 0 0 255 255 255 
0.173205080756888 0.2 0 0 255 255 255 
0.0316795680573215 0.771968549980061 -0.0182902071457056 0 255 255 255 
4.9702948032324E-17 0.9 -2.60465484400508E-17 0 255 255 255 
0.173205080756888 0.2 -0.1 0 255 255 255 
0.125967331459555 0.390909090909091 0.0727272727272728 0 255 255 255 
0.119549985172776 0.416844487152175 -0.0690222161211179 255 0 255 255 
0.147011471333337 0.305860212162145 -0.084877112548265 255 0 255 255 
0.0602574093985866 0.472021494456563 -0.0874899414754672 255 0 255 255 
4.12115008186291E-17 0.469601368074163 -0.122971037693096 255 0 255 255 
4.11155626582582E-17 0.608132264492049 -0.0833907815737004 255 0 255 255 
4.42639316826538E-17 0.334800684037082 -0.161485518846548 255 0 255 255 
0.0920884990122147 0.527828762142205 -0.0531673196939707 255 0 255 255 
0.0618840335347681 0.649898656061133 -0.0357287634198382 255 0 255 255 
0.0866025403784439 0.2 -0.15 255 0 255 255 
4.9702948032324E-17 0.9 -2.60465484400508E-17 255 0 255 255 
0.0316795680573215 0.771968549980061 -0.0182902071457056 255 0 255 255 
2.0627491413403E-17 0.754066132246024 -0.0416953907868502 255 0 255 255 
3.49254805891836E-17 0.2 -0.2 255 0 255 255 
0.173205080756888 0.2 -0.1 255 0 255 255 
4.12115008186291E-17 0.469601368074163 -0.122971037693096 255 255 0 255 
4.42639316826538E-17 0.334800684037082 -0.161485518846548 255 255 0 255 
-0.123467756814492 0.401011001568398 -0.0712841426330861 255 255 0 255 
4.11155626582582E-17 0.608132264492049 -0.0833907815737004 255 255 0 255 
-0.066175539720309 0.632554740300976 -0.0382064656712892 255 255 0 255 
2.0627491413403E-17 0.754066132246024 -0.0416953907868502 255 255 0 255 
-0.0952690358907081 0.514974775381445 -0.0550036035169365 255 255 0 255 
-0.0330877698601545 0.766277370150488 -0.0191032328356447 255 255 0 255 
-0.148783806408997 0.298697405230957 -0.0859003706812919 255 255 0 255 
-0.0866025403784438 0.2 -0.15 255 255 0 255 
3.49254805891836E-17 0.2 -0.2 255 255 0 255 
4.9702948032324E-17 0.9 -2.60465484400508E-17 255 255 0 255 
-0.173205080756888 0.2 -0.1 255 255 0 255 
-0.0330877698601545 0.766277370150488 -0.0191032328356447 255 0 0 255 
-0.0456382720023028 0.715555119618848 0.0263492686258789 255 0 0 255 
-0.0228191360011514 0.807777559809424 0.0131746343129394 255 0 0 255 
-0.115470053837925 0.433333333333333 0 255 0 0 255 
-0.10680496159431 0.468352886709161 0.0616638733272627 255 0 0 255 
-0.0867226967299973 0.5495143938866 0.0500693723019143 255 0 0 255 
-0.0952690358907081 0.514974775381445 -0.0550036035169365 255 0 0 255 
-0.123467756814492 0.401011001568398 -0.0712841426330861 255 0 0 255 
-0.0666404318656844 0.630675901064039 0.0384748712765658 255 0 0 255 
-0.066175539720309 0.632554740300976 -0.0382064656712892 255 0 0 255 
-0.148783806408997 0.298697405230957 -0.0859003706812919 255 0 0 255 
-0.144337567297406 0.316666666666667 0 255 0 0 255 
-0.173205080756888 0.2 0 255 0 0 255 
-0.173205080756888 0.2 -0.1 255 0 0 255 
-0.125967331459555 0.390909090909091 0.0727272727272728 255 0 0 255 
4.9702948032324E-17 0.9 -2.60465484400508E-17 255 0 0 255 
4.9702948032324E-17 0.9 -2.60465484400508E-17 0 255 0 255 
-0.0228191360011514 0.807777559809424 0.0131746343129394 0 255 0 255 
-2.14306567304351E-17 0.804572672950679 0.0272649505855204 0 255 0 255 
-7.68626159454297E-18 0.710592275690571 0.0541164926598369 0 255 0 255 
-0.0456382720023028 0.715555119618848 0.0263492686258789 0 255 0 255 
-1.60901569015937E-18 0.617782440786181 0.0806335883468054 0 255 0 255 
-0.0867226967299973 0.5495143938866 0.0500693723019143 0 255 0 255 
-0.10680496159431 0.468352886709161 0.0616638733272627 0 255 0 255 
-0.0734111115401817 0.503005842117179 0.071042977243001 0 255 0 255 
-0.046019804965143 0.587507152534523 0.0627141239197425 0 255 0 255 
-1.12902838146694E-13 0.433333333333163 0.133333333333544 0 255 0 255 
6.34765817179535E-19 0.525557887059651 0.1069834608401 0 255 0 255 
-0.125967331459555 0.390909090909091 0.0727272727272728 0 255 0 255 
-0.0666404318656844 0.630675901064039 0.0384748712765658 0 255 0 255 
1.38777878078145E-17 0.2 0 255 255 255 255 
-0.0866025403784438 0.2 -0.15 255 255 255 255 
0.0866025403784439 0.2 -0.15 255 255 255 255 
-0.173205080756888 0.2 0 255 255 255 255 
-0.173205080756888 0.2 -0.1 255 255 255 255 
3.49254805891836E-17 0.2 -0.2 255 255 255 255 
0.173205080756888 0.2 0 255 255 255 255 
0.173205080756888 0.2 -0.1 255 255 255 255 

3 0 1 2 
3 3 1 4 
3 1 3 2 
3 3 5 6 
3 4 1 0 
3 5 3 4 
3 2 3 7 
3 3 6 7 
3 5 8 9 
3 5 9 6 
3 10 11 12 
3 13 10 12 
3 14 15 16 
3 13 17 18 
3 10 13 18 
3 17 19 18 
3 13 12 16 
3 15 17 13 
3 18 19 20 
3 15 13 16 
3 21 22 23 
3 24 25 26 
3 22 24 23 
3 27 28 29 
3 30 27 29 
3 21 29 31 
3 30 23 26 
3 23 24 26 
3 31 32 21 
3 33 34 25 
3 29 21 30 
3 34 33 35 
3 27 34 35 
3 36 31 28 
3 30 34 27 
3 30 21 23 
3 34 30 26 
3 28 31 29 
3 34 26 25 
3 37 38 39 
3 40 41 42 
3 43 39 44 
3 45 46 47 
3 48 41 45 
3 49 50 42 
3 51 48 47 
3 48 45 47 
3 40 37 43 
3 48 51 49 
3 43 44 46 
3 41 49 42 
3 46 44 39 
3 51 52 49 
3 45 41 43 
3 45 43 46 
3 40 43 41 
3 48 49 41 
3 37 39 43 
3 53 54 55 
3 56 57 58 
3 53 57 54 
3 59 56 60 
3 61 62 63 
3 61 56 58 
3 56 61 60 
3 57 53 62 
3 58 57 62 
3 63 64 65 
3 65 60 61 
3 61 58 62 
3 61 63 65 
3 66 67 68 
3 69 70 71 
3 70 69 72 
3 69 73 72 
3 74 73 69 
3 72 73 67 
3 68 67 73 
3 70 72 67 
3 75 76 77 
3 78 77 79 
3 79 76 80 
3 76 79 77 
3 81 82 83 
3 84 85 86 
3 84 87 85 
3 88 89 90 
3 91 88 90 
3 85 92 93 
3 94 95 96 
3 97 83 82 
3 84 98 87 
3 88 99 87 
3 98 100 87 
3 87 100 88 
3 94 82 81 
3 101 85 102 
3 96 103 97 
3 101 102 104 
3 105 94 81 
3 86 85 93 
3 92 85 101 
3 82 94 96 
3 81 83 91 
3 81 91 105 
3 91 83 99 
3 95 94 105 
3 105 91 90 
3 99 88 91 
3 99 85 87 
3 96 97 82 
3 106 107 108 
3 109 108 107 
3 110 106 111 
3 111 112 113 
3 114 115 107 
3 108 112 111 
3 115 109 107 
3 106 108 111 
3 116 117 118 
3 119 120 121 
3 122 123 121 
3 119 124 120 
3 118 125 126 
3 122 117 116 
3 125 118 117 
3 123 119 121 
3 123 122 116 
3 127 120 124 
3 116 128 123 
3 129 130 131 
3 132 133 131 
3 131 134 132 
3 135 129 131 
3 133 136 131 
3 134 130 137 
3 138 139 140 
3 135 131 136 
3 140 139 136 
3 133 140 136 
3 141 134 137 
3 131 130 134 
3 142 137 130 
3 143 144 145 
3 146 147 148 
3 149 143 145 
3 146 143 149 
3 147 150 148 
3 144 151 145 
3 151 144 152 
3 149 147 146 
3 152 144 153 
3 148 150 154 
3 155 151 152 
3 156 157 158 
3 159 160 161 
3 159 162 163 
3 164 162 161 
3 164 157 165 
3 166 167 163 
3 167 159 163 
3 168 167 169 
3 170 160 159 
3 162 164 165 
3 162 159 161 
3 171 156 158 
3 167 166 169 
3 157 156 165 
3 172 173 174 
3 175 176 177 
3 178 179 180 
3 174 173 176 
3 180 181 178 
3 175 174 176 
3 182 183 184 
3 185 181 176 
3 183 181 180 
3 183 180 184 
3 184 180 179 
3 177 181 183 
3 181 185 178 
3 176 181 177 
3 186 187 188 
3 186 189 190 
3 187 191 188 
3 187 186 190 
3 186 188 192 
3 188 193 192 

